<?xml version="1.0" encoding="UTF-8"?>
<COLLADA xmlns="http://www.collada.org/2008/03/COLLADASchema" version="1.5.0">
	<asset>
		<contributor>
			<authoring_tool>CINEMA4D 15.057 COLLADA Exporter</authoring_tool>
		</contributor>
		<created>2014-08-22T03:28:07Z</created>
		<modified>2014-08-22T03:28:07Z</modified>
		<unit meter="0.01" name="centimeter"/>
		<up_axis>Y_UP</up_axis>
	</asset>
	<library_images>
		<image id="ID5">
			<init_from>
				<ref>moneybag.png</ref>
			</init_from>
		</image>
	</library_images>
	<library_effects>
		<effect id="ID2">
			<profile_COMMON>
				<technique sid="COMMON">
					<blinn>
						<diffuse>
							<color>0.8 0.8 0.8 1</color>
						</diffuse>
						<specular>
							<color>0.2 0.2 0.2 1</color>
						</specular>
						<shininess>
							<float>0.5</float>
						</shininess>
					</blinn>
				</technique>
			</profile_COMMON>
		</effect>
		<effect id="ID4">
			<profile_COMMON>
				<newparam sid="ID6">
					<sampler2D>
						<instance_image url="#ID5"/>
					</sampler2D>
				</newparam>
				<technique sid="COMMON">
					<blinn>
						<diffuse>
							<texture texture="ID6" texcoord="UVSET0"/>
						</diffuse>
					</blinn>
				</technique>
			</profile_COMMON>
		</effect>
	</library_effects>
	<library_materials>
		<material id="ID1" name="Mat">
			<instance_effect url="#ID2"/>
		</material>
		<material id="ID3" name="_ac76f19.png">
			<instance_effect url="#ID4"/>
		</material>
	</library_materials>
	<library_geometries>
		<geometry id="ID9">
			<mesh>
				<source id="ID10">
					<float_array id="ID11" count="294" digits="2490374">25.0852 -45.066 -0.000936476 12.5423 -45.0658 -21.7245 -7.4829 44.9598 -17.5186 -12.5431 -45.0658 -21.7245 -20.5164 40.5199 -15.0793 0.000404779 25.1571 0.00246612 -21.7248 -45.0657 -12.5428 -25.0855 -45.0657 -0.000483002 -24.24 39.6347 9.99427 -10.748 47.1721 14.8293 12.4995 44.9594 15.7277 1.14496 37.4218 24.6939 21.7245 -45.066 12.5414 -0.000174941 -47.1723 -0.000784233 12.5427 -45.0662 21.7227 32.7754 -39.1698 -0.000921872 35.476 -25.4342 -0.000378417 32.817 -9.48829 0.000309038 24.2587 8.42 0.00112488 12.3621 20.99 0.00186025 21.7242 -45.0659 -12.5431 28.3842 -39.1695 -16.3878 30.7229 -25.434 -17.7377 28.4202 -9.4881 -16.4074 6.18112 20.9904 -10.7029 21.0086 8.42032 -12.1273 10.7059 20.9902 -6.17848 -0.000423061 -45.0656 -25.085 16.3874 -39.1692 -28.3839 -0.000457416 -39.1692 -32.7747 -0.000222187 -9.48763 -32.8147 17.7377 -25.4337 -30.722 -0.000377405 -25.4336 -35.4746 1.35546e-005 8.42058 -24.2558 16.4083 -9.4877 -28.4183 12.1293 8.42051 -21.006 -16.4086 -9.48759 -28.4182 -28.3847 -39.1691 -16.3873 -16.3882 -39.1692 -28.3837 -17.7383 -25.4336 -30.7218 -30.7233 -25.4336 -17.7371 -12.1292 8.42055 -21.006 -28.4203 -9.48738 -16.4065 -21.0083 8.42054 -12.127 -10.7053 20.9905 -6.17814 -28.3844 -39.1692 16.3871 -32.7757 -39.1692 -0.000251426 -35.476 -25.4336 0.000378417 -32.8167 -9.48774 0.000980806 -24.2582 8.42057 0.00195897 -16.3876 -39.1694 28.3831 -21.7245 -45.0658 12.5417 -17.7377 -25.4341 30.722 -30.7229 -25.4337 17.7377 -28.4199 -9.48768 16.4091 -6.18037 20.9902 10.7074 -21.0081 8.42025 12.1304 -10.7051 20.9903 6.183 -12.5426 -45.0659 21.7231 0.00011437 -45.0661 25.0836 0.000382405 -25.4342 35.4746 0.000477563 -9.48811 32.8164 -16.408 -9.48805 28.42 -12.1287 8.42034 21.0095 0.00050192 20.9903 12.3636 0.000529531 8.41999 24.2589 16.388 -39.1698 28.3826 0.000241009 -39.1698 32.7736 17.7384 -25.4342 30.7218 16.4088 -9.48815 28.4199 12.1297 8.42002 21.0091 28.3845 -39.1697 16.3865 30.7233 -25.4342 17.7371 28.4205 -9.48836 16.4082 21.0089 8.42002 12.1301 -12.3614 20.9903 0.00225569 -6.1806 20.9902 -10.7031 6.18135 20.9901 10.7072 10.706 20.9901 6.18266 0.000241485 20.9903 -12.3591 12.3622 26.7429 0.00233572 10.7059 26.7428 -6.17841 22.9539 36.9792 -15.6792 16.4613 44.517 -2.54294 20.558 36.9789 15.0852 6.18139 26.7426 10.7073 10.7061 26.7426 6.18276 6.18116 26.743 -10.7028 9.57672 44.5172 -16.9196 0.00028321 26.7429 -12.359 -0.258916 32.5544 -24.6882 -6.18056 26.7431 -10.7026 -10.7052 26.7431 -6.17804 -12.3613 26.7429 0.00235314 -16.9017 47.1723 -1.34437 -10.7051 26.7429 6.1831 -6.18033 26.7428 10.7075 0.000548645 26.7429 12.3637</float_array>
					<technique_common>
						<accessor count="98" source="#ID11" stride="3">
							<param name="X" type="float"/>
							<param name="Y" type="float"/>
							<param name="Z" type="float"/>
						</accessor>
					</technique_common>
				</source>
				<source id="ID12">
					<float_array id="ID13" count="402" digits="2490374">0.34057 -0.910222 -0.235603 -5.4719e-006 -1 -6.72676e-006 0.412726 -0.91023 -0.0337436 -0.356568 0.918565 0.170578 -0.764455 0.636638 -0.101496 0.0953582 0.993773 -0.057636 0.177147 -0.910216 -0.374333 -0.358494 0.708573 0.607788 -0.0337344 -0.910213 -0.412765 0.0704989 0.955752 0.285601 -0.235591 -0.910213 -0.3406 0.499897 0.672155 0.546178 -0.374321 -0.910218 -0.177164 0.469846 0.852475 0.229197 -0.412741 -0.910223 0.0337349 0.781044 0.608285 0.141277 -0.340575 -0.910224 0.235584 0.468107 0.873957 -0.130675 -0.177157 -0.910225 0.374306 0.41252 0.638794 -0.649438 0.0337269 -0.910227 0.412733 0.0465436 0.893768 -0.446109 0.235575 -0.91023 0.340567 -0.199586 0.683526 -0.702109 0.374297 -0.910231 0.177149 -0.26036 0.899713 -0.350328 0.725468 -0.530451 -0.438541 0.847533 -0.530469 -0.0170369 0.865811 -0.0144626 -0.500163 0.999895 -0.0144809 -0.000230551 0.827583 0.301165 -0.473714 0.953571 0.301147 0.00355836 0.717244 0.566795 -0.405346 0.823832 0.566783 0.00759198 0.660028 0.685953 -0.30632 0.724773 0.685941 0.0647284 0.409017 -0.530428 -0.74253 0.499736 -0.0144425 -0.866058 0.479849 0.301178 -0.824037 0.418473 0.566799 -0.709661 0.418431 0.685954 -0.595301 -0.0170282 -0.530423 -0.847562 -0.000223794 -0.0144301 -0.999896 0.00356266 0.301185 -0.953559 0.00759455 0.566803 -0.823818 0.0647312 0.685955 -0.724759 -0.438515 -0.530423 -0.725504 -0.500132 -0.0144309 -0.865829 -0.473687 0.301186 -0.827591 -0.405325 0.566807 -0.717246 -0.306308 0.685961 -0.660025 -0.742515 -0.530433 -0.40904 -0.866043 -0.014446 -0.499761 -0.824024 0.301181 -0.479868 -0.70965 0.566805 -0.418483 -0.59529 0.685962 -0.418434 -0.847544 -0.530451 0.0170266 -0.999895 -0.0144671 0.000227935 -0.953566 0.301164 -0.00355418 -0.823823 0.566796 -0.00757797 -0.724758 0.685957 -0.0647252 -0.72547 -0.53046 0.438527 -0.86581 -0.0144918 0.500163 -0.827588 0.301141 0.473721 -0.717248 0.566777 0.405362 -0.660027 0.685939 0.306352 -0.409012 -0.530465 0.742507 -0.499735 -0.0145054 0.866057 -0.479847 0.301111 0.824063 -0.418475 0.56676 0.709691 -0.418447 0.685924 0.595324 0.0170259 -0.530473 0.847531 0.000227766 -0.0145196 0.999895 -0.00356077 0.301106 0.953584 -0.00756903 0.566742 0.823861 -0.0647037 0.685907 0.724807 0.4385 -0.530474 0.725476 0.500133 -0.0145178 0.865827 0.473702 0.301108 0.827611 0.405341 0.566758 0.717276 0.306343 0.685908 0.660064 0.742493 -0.530472 0.409027 0.866041 -0.0144981 0.499762 0.82404 0.301126 0.479876 0.709674 0.566767 0.418494 0.595314 0.685929 0.418453 0.420991 -1.88592e-005 0.907065 0.0889837 -1.76241e-005 0.996033 -0.0889527 -1.61211e-005 0.996036 0.575064 -1.77569e-005 0.818109 -0.420964 -1.19163e-005 0.907077 -0.575041 -9.39346e-006 0.818124 -0.818094 -3.64223e-006 0.575085 -0.907064 -3.70864e-008 0.420993 0.996036 -1.18537e-005 0.088955 0.907072 -2.00393e-005 0.420976 0.818105 -1.44108e-005 0.575069 0.996033 -9.29443e-006 -0.0889821 -0.996034 6.81095e-006 0.0889686 -0.996035 9.87605e-006 -0.0889633 -0.907075 1.42893e-005 -0.420968 -0.818114 3.31052e-005 -0.575056 -0.57506 5.90164e-005 -0.818111 -0.420973 5.77461e-005 -0.907073 -0.0889659 3.77688e-005 -0.996035 0.0889497 1.28195e-005 -0.996036 0.420964 1.03423e-005 -0.907078 0.575043 8.77006e-006 -0.818123 0.818092 3.39465e-006 -0.575087 0.907062 4.20639e-006 -0.420998 0.618737 -0.745465 -0.247885 0.881011 -0.417096 0.223272 0.95173 -0.275571 0.13517 0.394381 -0.658329 -0.641145 0.471631 -0.454888 -0.755408 0.573885 -0.577881 -0.580267 0.832973 -0.540883 0.116627 0.526809 -0.696866 0.486672 0.197077 -0.493615 0.847057 0.303315 -0.416672 0.856963 0.0105202 -0.829196 -0.55886 -0.412981 -0.676219 -0.610061 -0.457771 -0.4335 -0.776224 -0.282969 -0.491673 -0.82352 -0.629015 -0.621337 -0.467205 -0.867096 -0.478379 -0.138915 -0.940095 -0.29021 -0.178886 -0.864212 -0.431465 -0.258795 -0.731911 -0.643412 0.224337 -0.537311 -0.5266 0.658779 -0.536972 -0.33848 0.772717 -0.562461 -0.463478 0.684708 -0.0888445 -0.683398 0.724619 0.289179 -0.608479 0.739005</float_array>
					<technique_common>
						<accessor count="134" source="#ID13" stride="3">
							<param name="X" type="float"/>
							<param name="Y" type="float"/>
							<param name="Z" type="float"/>
						</accessor>
					</technique_common>
				</source>
				<source id="ID14">
					<float_array id="ID15" count="184" digits="2490374">0.48784 0.046147 0.304856 -0.001616 0.528108 0.0481321 0.95931 0.904974 1.00244 0.797769 0.818872 0.796724 0.413793 0.046147 0.902704 0.96345 0.304856 0.046147 0.816671 0.982368 0.195919 0.046147 0.727495 0.96345 0.122263 0.046147 0.660107 0.890356 0.081604 0.0481321 0.626748 0.798409 0.652021 0.685692 0.722104 0.61747 0.823202 0.596121 0.913486 0.612597 0.978178 0.685692 0.551444 0.113557 0.604361 0.11508 0.567082 0.236764 0.623461 0.237207 0.551745 0.397933 0.604728 0.397131 0.489383 0.578938 0.528561 0.576733 0.49164 0.743949 0.524427 0.740407 0.455002 0.113557 0.466729 0.236762 0.455181 0.397933 0.418015 0.578938 0.415997 0.743949 0.312668 0.113557 0.312668 0.236762 0.312668 0.397933 0.312669 0.578938 0.312669 0.743949 0.170335 0.113557 0.158608 0.236762 0.170156 0.397933 0.207322 0.578938 0.20934 0.743949 0.073795 0.113557 0.058157 0.236764 0.073494 0.397933 0.135856 0.578938 0.133697 0.743949 0.020976 0.11508 0.001876 0.237207 0.020609 0.397131 0.096776 0.576733 0.10091 0.740407 0.312669 0.113557 0.312669 0.236762 0.312669 0.397933 0.931471 0.492489 0.875169 0.251907 0.875169 0.492489 0.931471 0.251907 0.818866 0.251907 0.818866 0.492489 0.77765 0.251907 0.77765 0.492489 0.987774 0.492489 0.972687 0.251907 0.972687 0.492489 0.987774 0.251907 0.762564 0.251907 0.762564 0.492489 0.594721 0.896332 0.563115 0.763365 0.514779 0.973375 0.529487 0.763365 0.430015 0.973375 0.437611 0.763365 0.565217 0.896332 0.465997 0.977898 0.308917 0.851103 0.312108 0.763365 0.219971 0.977898 0.186604 0.763365 0.059497 0.932515 0.094728 0.763365 0.104001 1.00051 0.0611 0.763365 0.013647 0.923469 0.179765 1.00051 0.326196 0.900854</float_array>
					<technique_common>
						<accessor count="92" source="#ID15" stride="2">
							<param name="S" type="float"/>
							<param name="T" type="float"/>
						</accessor>
					</technique_common>
				</source>
				<vertices id="ID16">
					<input semantic="POSITION" source="#ID10"/>
				</vertices>
				<triangles count="192" material="Material1">
					<input offset="0" semantic="VERTEX" source="#ID16" set="0"/>
					<input offset="1" semantic="NORMAL" source="#ID12" set="0"/>
					<input offset="2" semantic="TEXCOORD" source="#ID14" set="0"/>
					<p>0 2 2 13 1 1 20 0 0 5 5 5 83 4 4 82 3 3 20 0 0 13 1 1 1 6 6 5 5 5 82 3 3 88 7 7 1 6 6 13 1 1 27 8 8 5 5 5 88 7 7 90 9 9 27 8 8 13 1 1 3 10 10 5 5 5 90 9 9 2 11 11 3 10 10 13 1 1 6 12 12 5 5 5 2 11 11 4 13 13 6 12 12 13 1 1 7 14 14 5 5 5 4 13 13 94 15 15 7 14 14 13 1 1 51 16 12 5 5 5 94 15 15 8 17 16 51 16 12 13 1 1 58 18 10 5 5 5 8 17 16 9 19 17 58 18 10 13 1 1 59 20 8 5 5 5 9 19 17 11 21 18 59 20 8 13 1 1 14 22 6 5 5 5 11 21 18 10 23 19 14 22 6 13 1 1 12 24 0 5 5 5 10 23 19 84 25 20 12 24 0 13 1 1 0 2 2 5 5 5 84 25 20 83 4 4 15 27 22 0 2 2 21 26 21 21 26 21 0 2 2 20 0 0 16 29 24 15 27 22 22 28 23 22 28 23 15 27 22 21 26 21 17 31 26 16 29 24 23 30 25 23 30 25 16 29 24 22 28 23 18 33 28 17 31 26 25 32 27 25 32 27 17 31 26 23 30 25 19 35 30 18 33 28 26 34 29 26 34 29 18 33 28 25 32 27 21 26 21 20 0 0 28 36 31 28 36 31 20 0 0 1 6 6 22 28 23 21 26 21 31 37 32 31 37 32 21 26 21 28 36 31 23 30 25 22 28 23 34 38 33 34 38 33 22 28 23 31 37 32 25 32 27 23 30 25 35 39 34 35 39 34 23 30 25 34 38 33 26 34 29 25 32 27 24 40 35 24 40 35 25 32 27 35 39 34 28 36 31 1 6 6 29 41 36 29 41 36 1 6 6 27 8 8 31 37 32 28 36 31 32 42 37 32 42 37 28 36 31 29 41 36 34 38 33 31 37 32 30 43 38 30 43 38 31 37 32 32 42 37 35 39 34 34 38 33 33 44 39 33 44 39 34 38 33 30 43 38 24 40 35 35 39 34 79 45 40 79 45 40 35 39 34 33 44 39 29 41 36 27 8 8 38 46 41 38 46 41 27 8 8 3 10 10 32 42 37 29 41 36 39 47 42 39 47 42 29 41 36 38 46 41 30 43 38 32 42 37 36 48 43 36 48 43 32 42 37 39 47 42 33 44 39 30 43 38 41 49 44 41 49 44 30 43 38 36 48 43 79 45 40 33 44 39 76 50 45 76 50 45 33 44 39 41 49 44 38 46 41 3 10 10 37 51 46 37 51 46 3 10 10 6 12 12 39 47 42 38 46 41 40 52 47 40 52 47 38 46 41 37 51 46 36 48 43 39 47 42 42 53 48 42 53 48 39 47 42 40 52 47 41 49 44 36 48 43 43 54 49 43 54 49 36 48 43 42 53 48 76 50 45 41 49 44 44 55 50 44 55 50 41 49 44 43 54 49 37 51 46 6 12 12 46 56 51 46 56 51 6 12 12 7 14 14 40 52 47 37 51 46 47 57 52 47 57 52 37 51 46 46 56 51 42 53 48 40 52 47 48 58 53 48 58 53 40 52 47 47 57 52 43 54 49 42 53 48 49 59 54 49 59 54 42 53 48 48 58 53 44 55 50 43 54 49 75 60 55 75 60 55 43 54 49 49 59 54 46 56 51 7 14 14 45 61 46 45 61 46 7 14 14 51 16 12 47 57 52 46 56 51 53 62 47 53 62 47 46 56 51 45 61 46 48 58 53 47 57 52 54 63 48 54 63 48 47 57 52 53 62 47 49 59 54 48 58 53 56 64 49 56 64 49 48 58 53 54 63 48 75 60 55 49 59 54 57 65 50 57 65 50 49 59 54 56 64 49 45 61 46 51 16 12 50 66 41 50 66 41 51 16 12 58 18 10 53 62 47 45 61 46 52 67 42 52 67 42 45 61 46 50 66 41 54 63 48 53 62 47 62 68 43 62 68 43 53 62 47 52 67 42 56 64 49 54 63 48 63 69 44 63 69 44 54 63 48 62 68 43 57 65 50 56 64 49 55 70 45 55 70 45 56 64 49 63 69 44 50 66 41 58 18 10 67 71 56 67 71 56 58 18 10 59 20 8 52 67 42 50 66 41 60 72 57 60 72 57 50 66 41 67 71 56 62 68 43 52 67 42 61 73 58 61 73 58 52 67 42 60 72 57 63 69 44 62 68 43 65 74 39 65 74 39 62 68 43 61 73 58 55 70 45 63 69 44 64 75 40 64 75 40 63 69 44 65 74 39 67 71 56 59 20 8 66 76 31 66 76 31 59 20 8 14 22 6 60 72 57 67 71 56 68 77 32 68 77 32 67 71 56 66 76 31 61 73 58 60 72 57 69 78 33 69 78 33 60 72 57 68 77 32 65 74 39 61 73 58 70 79 34 70 79 34 61 73 58 69 78 33 64 75 40 65 74 39 77 80 35 77 80 35 65 74 39 70 79 34 66 76 31 14 22 6 71 81 21 71 81 21 14 22 6 12 24 0 68 77 32 66 76 31 72 82 23 72 82 23 66 76 31 71 81 21 69 78 33 68 77 32 73 83 25 73 83 25 68 77 32 72 82 23 70 79 34 69 78 33 74 84 27 74 84 27 69 78 33 73 83 25 77 80 35 70 79 34 78 85 29 78 85 29 70 79 34 74 84 27 71 81 21 12 24 0 15 27 22 15 27 22 12 24 0 0 2 2 72 82 23 71 81 21 16 29 24 16 29 24 71 81 21 15 27 22 73 83 25 72 82 23 17 31 26 17 31 26 72 82 23 16 29 24 74 84 27 73 83 25 18 33 28 18 33 28 73 83 25 17 31 26 78 85 29 74 84 27 19 35 30 19 35 30 74 84 27 18 33 28 97 88 61 64 87 60 85 86 59 85 86 59 64 87 60 77 89 62 96 91 64 55 90 63 97 88 61 97 88 61 55 90 63 64 87 60 95 93 66 57 92 65 96 91 64 96 91 64 57 92 65 55 90 63 86 96 69 78 95 68 80 94 67 80 94 67 78 95 68 19 97 70 93 99 72 75 98 71 95 93 66 95 93 66 75 98 71 57 92 65 92 101 66 44 100 65 93 99 72 93 99 72 44 100 65 75 98 71 91 103 64 76 102 63 92 101 66 92 101 66 76 102 63 44 100 65 89 105 61 79 104 60 91 103 64 91 103 64 79 104 60 76 102 63 85 86 59 77 89 62 86 96 69 86 96 69 77 89 62 78 95 68 87 107 59 24 106 62 89 105 61 89 105 61 24 106 62 79 104 60 81 109 69 26 108 68 87 107 59 87 107 59 26 108 68 24 106 62 80 94 67 19 97 70 81 109 69 81 109 69 19 97 70 26 108 68 83 112 75 80 111 74 82 110 73 82 110 73 80 111 74 81 113 76 82 110 73 81 113 76 88 114 77 88 114 77 81 113 76 87 115 78 84 117 79 86 116 76 83 112 75 83 112 75 86 116 76 80 111 74 10 119 80 85 118 78 84 117 79 84 117 79 85 118 78 86 116 76 88 114 77 87 115 78 90 120 81 90 120 81 87 115 78 89 121 82 90 120 81 89 121 82 2 122 83 2 122 83 89 121 82 91 123 84 2 122 83 91 123 84 4 124 85 4 124 85 91 123 84 92 125 86 4 124 85 92 125 86 94 126 87 94 126 87 92 125 86 93 127 88 94 126 87 93 127 88 8 128 89 8 128 89 93 127 88 95 129 86 8 128 89 95 129 86 9 130 90 9 130 90 95 129 86 96 131 84 9 130 90 96 131 84 11 132 91 11 132 91 96 131 84 97 133 82 11 132 91 97 133 82 10 119 80 10 119 80 97 133 82 85 118 78</p>
				</triangles>
			</mesh>
		</geometry>
	</library_geometries>
	<library_visual_scenes>
		<visual_scene id="ID7">
			<node id="ID8" name="DrawCall_0032">
				<translate sid="translate">-1.95217 49.5015 1.12738</translate>
				<rotate sid="rotateY">0 1 0 -0</rotate>
				<rotate sid="rotateX">1 0 0 0</rotate>
				<rotate sid="rotateZ">0 0 1 -0</rotate>
				<scale sid="scale">1 1 1</scale>
				<instance_geometry url="#ID9">
					<bind_material>
						<technique_common>
							<instance_material symbol="Material1" target="#ID3">
								<bind_vertex_input semantic="UVSET0" input_semantic="TEXCOORD" input_set="0"/>
							</instance_material>
						</technique_common>
					</bind_material>
				</instance_geometry>
			</node>
		</visual_scene>
	</library_visual_scenes>
	<scene>
		<instance_visual_scene url="#ID7"/>
	</scene>
</COLLADA>
